<?xml version="1.0" encoding="UTF-8" standalone="no"?>
<svg
   version="1.2"
   viewBox="0 0 1000 1000"
   width="1000"
   height="1000"
   id="svg9"
   sodipodi:docname="meowrch-logo-preparing.svg"
   inkscape:version="1.4.3 (0d15f75042, 2025-12-25)"
   xmlns:inkscape="http://www.inkscape.org/namespaces/inkscape"
   xmlns:sodipodi="http://sodipodi.sourceforge.net/DTD/sodipodi-0.dtd"
   xmlns="http://www.w3.org/2000/svg"
   xmlns:svg="http://www.w3.org/2000/svg">
  <defs
     id="defs9" />
  <sodipodi:namedview
     id="namedview9"
     pagecolor="#ffffff"
     bordercolor="#000000"
     borderopacity="0.25"
     inkscape:showpageshadow="2"
     inkscape:pageopacity="0.0"
     inkscape:pagecheckerboard="0"
     inkscape:deskcolor="#d1d1d1"
     inkscape:zoom="0.35355339"
     inkscape:cx="-562.857"
     inkscape:cy="458.20519"
     inkscape:window-width="1900"
     inkscape:window-height="1019"
     inkscape:window-x="0"
     inkscape:window-y="0"
     inkscape:window-maximized="1"
     inkscape:current-layer="mauve" />
  <style
     id="style1">
		.s0 { fill: #fecdcd } 
		.s1 { fill: #d8a7f9 } 
		.s2 { fill: #d9a7f9 } 
		.s3 { fill: #fea0ad } 
		.s4 { fill: #f79cac } 
		.s5 { fill: #fde0dc } 
		.s6 { fill: #fec2e8 } 
		.s7 { fill: #000000 } 
		.s8 { fill: #fcfcfc } 
		.s9 { fill: #010101 } 
		.s10 { fill: #fdbaef } 
		.s11 { fill: #febaef } 
		.s12 { fill: #bb7bd9 } 
		.s13 { fill: #f0eeef } 
		.s14 { fill: #fbb8ec } 
	</style>
  <g
     id="circle">
    <path
       id="flamingo"
       class="s0"
       d="m478.13 73.7q2.52-0.01 5.04-0.01 5.26-0.01 10.51-0.01 5.3 0.01 10.59-0.02c20.44-0.1 40.49 0.14 60.73 3.34 1.23 0.19 1.23 0.19 2.49 0.38q7.6 1.22 15.14 2.74 1.11 0.22 2.25 0.45c69.6 13.81 137.04 45.25 190.6 92.12q2.25 1.92 4.55 3.78c8.46 6.93 16.18 14.55 23.91 22.28q0.81 0.81 1.65 1.65c6.02 6.02 11.93 12.08 17.41 18.6q0.8 0.94 1.62 1.9c19.77 23.34 36.62 48.33 51.38 75.1q0.68 1.22 1.38 2.47c22.43 40.23 36.38 84.92 44 130.22q0.18 1.07 0.36 2.17 1.26 7.55 2.26 15.14 0.15 1.12 0.3 2.27c2 15.77 2.04 31.58 2.02 47.46q-0.01 4.38 0.02 8.76c0.11 19.05-0.68 37.61-3.34 56.51q-0.16 1.14-0.32 2.31-0.85 6.08-1.93 12.13-0.32 1.78-0.64 3.62c-13.68 74.58-47.79 145.2-98.11 201.94q-0.95 1.08-1.92 2.19c-5.78 6.51-11.83 12.72-18 18.86q-2.47 2.46-4.93 4.94c-5.54 5.54-11.14 10.97-17.15 16.01q-0.94 0.8-1.9 1.62c-20.56 17.42-42.4 32.72-65.8 46.07q-2.34 1.34-4.67 2.69c-56.89 32.89-125.58 52.56-191.31 52.82q-1.74 0.01-3.54 0.02-5.61 0.03-11.22 0.03-1.91 0-3.87 0c-18.76-0.01-37.12-0.41-55.69-3.25q-1.75-0.26-3.55-0.52c-45.38-6.78-89.83-20.28-130.59-41.52-3.35-1.73-6.73-3.4-10.11-5.08q-2.79-1.4-5.57-2.8-2.42-1.2-4.86-2.35c-7.43-3.57-14.29-7.76-21.1-12.38q-2.57-1.74-5.15-3.45-15.63-10.48-30.19-22.4-1.02-0.82-2.06-1.67-6.87-5.62-13.41-11.63-2.02-1.85-4.08-3.64c-5.52-4.73-10.7-9.75-15.84-14.88q-2.13-2.13-4.27-4.23c-5.38-5.38-10.36-10.89-15.1-16.84-2.01-2.47-4.09-4.85-6.23-7.21-3.97-4.43-7.59-9.07-11.14-13.84q-0.96-1.29-1.96-2.62c-46.86-63.38-75.85-138.4-82.79-216.94-0.14-1.34-0.14-1.34-0.28-2.71-1.11-11.86-0.96-23.77-0.97-35.66q0-1.77 0-3.59c0.01-18.54 0.63-36.66 3.25-55.04q0.24-1.77 0.49-3.6c5.48-39.57 16.52-78.5 33.29-114.77q1.81-3.92 3.58-7.86c6.29-13.8 13.8-26.8 21.64-39.77q0.69-1.14 1.39-2.32c10.15-16.93 21.96-32.57 34.61-47.68q0.73-0.88 1.48-1.78c20.57-24.7 43.7-47.05 69.52-66.22q0.99-0.74 2.01-1.5c16.18-12.03 33-22.74 50.75-32.29q3.32-1.8 6.61-3.63c52.6-28.87 116.63-46.94 176.76-46.88z" />
    <g
       id="mauve">
      <path
         class="s1"
         d="m 268,517 c 2.28,2.73 3.5,4.82 5,8 0.3,0.62 0.60333,1.24667 0.91,1.88 1.00667,2.11333 1.99333,4.23667 2.96,6.37 0.32667,0.69333 0.65333,1.39667 0.98,2.11 2.21,5.04 2.21,5.04 1.94,7.62 -0.99,2.54 -2.34,3.97 -4.25,5.92 -0.69333,0.72 -1.4,1.45333 -2.12,2.2 -0.73333,0.74667 -1.47667,1.50333 -2.23,2.27 -4.54,4.65 -8.82,9.06 -12.19,14.63 2.12667,-1.20667 4.25333,-2.41667 6.38,-3.63 0.62667,-0.35333 1.26667,-0.71667 1.92,-1.09 4.53333,-2.58667 9.00667,-5.27 13.42,-8.05 2.79,-1.5 5.17,-2.58 8.28,-3.23 2.42,1.27 2.42,1.27 4.75,3.38 0.86,0.74667 1.73667,1.50667 2.63,2.28 0.86,0.76667 1.73333,1.54667 2.62,2.34 15.06,12.67 31.33,21.5 48.94,30.13 l 6.44,3.18 c 5.2,2.57333 10.40667,5.13667 15.62,7.69 0.26,4.62 -0.4,7.58 -2.39,11.73 -0.51333,1.11333 -1.03667,2.24 -1.57,3.38 -0.42,0.89 -0.42,0.89 -0.85,1.79 -5.58,11.78 -10.55,23.74 -15.19,35.91 -0.26667,0.69333 -0.53667,1.39667 -0.81,2.11 -5.63,14.7 -10.38,29.47 -13.69,44.89 -0.22,1.02 -0.22,1.02 -0.45,2.06 -5.48815,72.10817 -42.15434,26.2629 -106.63227,46.78016 -29.45354,7.49069 -34.34899,8.36117 -45.86875,14.37891 -2.44777,1.11218 -9.87203,11.41897 -12.65899,8.3455 -3.97,-4.43 -7.59,-9.04457 -11.14,-13.81457 -0.64,-0.86 -1.29333,-1.73333 -1.96,-2.62 C 97.956704,679.29629 81.422187,594.21073 76.996197,564.99523 79.546197,563.29523 82.17,562.51 85,561.62 c 7.13,-2.3 27.16,-10.45 33.94,-13.68 26.05,-11.98 40.78,-10.64 68.98,-14.14 4.99,-0.63 9.91,-1.45 14.84,-2.4 3.89,-0.69 7.78,-0.85 11.71,-1.06 9.51,-0.92 17.85,-3.32 26.72,-6.84 19.89,-7.81 19.89,-7.81 26.81,-6.5 z"
         id="path1"
         sodipodi:nodetypes="ccccccccccccccccccccccccccccccsccccccccc"
         style="fill:#cba6f7;fill-opacity:1" />
      <path
         class="s2"
         d="M 926.74916,518.1231 C 924.03528,586.1743 907.20329,644.3005 877.2955,701.53582 864.6877,725.6637 844.07476,755.53131 822,781 c -5.89497,6.63881 -14.07754,15.17317 -15.3453,16.47177 -34.66008,-0.886 -110.48041,1.80472 -136.90329,-21.41065 C 616.68735,729.43859 627.33771,635.50179 625,601 c 5.08,-4.65 101.52256,-98.77033 108.34256,-98.95033 117.49109,-6.62285 177.87875,3.5139 193.4066,16.07343 z"
         id="path2"
         sodipodi:nodetypes="csccsccc"
         style="fill:#cba6f7;fill-opacity:1" />
    </g>
    <g
       id="maroon">
      <path
         class="s3"
         d="M 825.71199,222.59315 C 901.21486,310.60675 933.84214,420.74902 926.75,518.125 847.24003,503.36015 781.65737,492.2835 640,546.5 c 67.92381,-240.20806 94.1867,-281.29355 94.9467,-281.51355 33.7363,-6.70226 62.58483,-23.55954 90.76529,-42.3933 z"
         id="path3"
         sodipodi:nodetypes="ccccc"
         style="fill:#fea0ad;fill-opacity:1" />
      <path
         class="s3"
         d="m 268.67745,354.05386 c 4.25602,4.46982 14.09715,20.32824 16.12618,104.19435 -16.17746,33.51106 31.58564,92.20021 28.46576,95.42611 C 223.40679,568.45176 189.05299,572.64608 77,565 70.79768,512.84098 67.659815,443.75694 92.466008,368.13985 c 76.578832,1.92983 99.770492,0.5196 176.211442,-14.08599 z"
         id="path4"
         sodipodi:nodetypes="cccccc"
         style="fill:#fea0ad;fill-opacity:1" />
    </g>
    <path
       id="rosewater"
       class="s5"
       d="M 705,124 C 594.59089,182.02914 389.24269,198.8142 235.68072,202.80711 206.459,202.09149 210.43347,201.87914 192.55806,201.77903 212.09334,182.32744 307.85382,82.004875 466.39175,74.09734 534.7718,70.686689 612.32908,73.570077 705,124 Z"
       sodipodi:nodetypes="cccsc" />
    <g
       id="pink">
      <path
         class="s6"
         d="m 330.01713,731 c 0.64,17.72 -2.13713,31.64 -11.01713,47 -2.03333,3.64 -4.05333,7.28667 -6.06,10.94 -0.51333,0.92667 -1.03667,1.87 -1.57,2.83 -6.02,11.05 -11.1,22.27 -13.76,34.62 -0.61,2.61 -0.61,2.61 -1.59,5.39 -1.26,3.98 -1.94,7.92 -2.58,12.03 -0.13333,0.82 -0.26333,1.65 -0.39,2.49 -1.23,8.21 -1.45231,17.84843 -1.76231,26.13843 -14.38152,-5.78029 -43.55667,-25.68968 -65.46272,-44.02199 C 210.47266,815.5687 189.02551,799.07303 149.62033,746.52815 236.41676,758.11418 258.25245,723.62323 330.01713,731 Z"
         id="path6"
         sodipodi:nodetypes="cccccccccscc"
         style="fill:#f5c2e7;fill-opacity:1" />
      <path
         class="s6"
         d="m 662.98106,744.5307 c 112.88586,7.37522 100.79229,7.18693 207.84213,-31.45004 -46.47386,88.45561 -142.52134,152.21362 -166.72148,162.27533 0,-0.99333 -0.10471,-2.35932 -0.11171,-3.38599 -0.22,-10.92 -1.75,-21.5 -3.74,-32.22 -0.12,-0.66667 -0.24,-1.34 -0.36,-2.02 -3.42,-18.77 -10.28,-35.52 -19.57,-52.15 C 679,783 662.98106,776.40597 662.98106,744.5307 Z"
         id="path7"
         sodipodi:nodetypes="cccccccc"
         style="fill:#f5c2e7;fill-opacity:1" />
    </g>
  </g>
  <g
     id="cat">
    <path
       id="cat_body"
       class="s7"
       d="m 294,222 c 0.84,0.22667 1.69333,0.46 2.56,0.7 27.3,7.53 52.97,19.83 78.38,32.18 15.74173,8.53849 22.15291,10.25983 38.15932,8.80829 32.94714,-9.6804 41.17562,-10.38132 65.85068,-12.34829 3.23,-0.13 4.19223,-0.13322 9.05,-1.34 0.44616,-3.34773 -3.51,-6.92 -6.62,-10.19 -4.38,-4.6 -6.14777,-6.01421 -4.38,-6.81 1.77542,-0.61905 12.11,1.74 18.24,3.8 1.28,0.42 1.28,0.42 2.57,0.84 2.69333,0.88667 5.38333,1.77667 8.07,2.67 1.78667,0.59333 3.57667,1.18333 5.37,1.77 6.97,2.28 13.92,4.58 20.79,7.14 5.38,1.99 10.86,3.49 16.4,4.97 7.11,1.93 14.17,3.96 21.17,6.3 0.62667,0.20667 1.26,0.41667 1.9,0.63 3.07333,1.02 6.13667,2.06 9.19,3.12 9.93,3.34 15.66,2.39 24.93,-1.99 1.77333,-0.82 3.54667,-1.63667 5.32,-2.45 0.96,-0.44667 1.93333,-0.89667 2.92,-1.35 17.48,-8.08 34.97,-15.99 53.13,-22.45 0.75333,-0.27333 1.52,-0.55 2.3,-0.83 15.74,-5.66 32.93,-11.2 49.76,-11.42 1.78,-0.04 1.78,-0.04 3.6,-0.08 3.67,0.36 5.46,1.08 8.34,3.33 11.36302,9.26384 -1.21169,130.63353 -17.42,187.2 -0.84,2.86 -0.84,2.86 0.42,5.8 2.48241,2.52796 5.36342,5.08159 8,7 2.02686,1.80466 15.65298,12.23864 16.70375,18.54625 C 738.205,446.93417 733.58,448.17 730.84,448.28 c -0.78667,0.04 -1.58667,0.0767 -2.4,0.11 -1.67333,0.0733 -3.34333,0.14667 -5.01,0.22 -1.19,0.05 -1.19,0.05 -2.4,0.11 -0.72,0.0267 -1.45333,0.0567 -2.2,0.09 -1.93,0.09 -3.13312,0.37125 -3.43938,1.45562 2.2523,8.09616 5.09659,26.59594 12.60938,30.73438 11.57807,2.31198 16.18891,2.11919 27.36643,6.04473 19.05091,6.9411 36.82183,11.91497 39.38357,15.45527 -1.8425,2.155 -34.50666,-6.91977 -42.24666,-9.02977 -13.5905,-3.02934 -15.35827,-2.96056 -25.31584,-3.90773 L 726,513 c 1.64,0.66 3.30667,1.32667 5,2 27.49359,13.33595 39.53225,21.87448 39.03122,22.6268 C 768.5597,539.83636 740.41869,524.51138 725,522 c -6.57049,10.13742 -7.09552,9.88094 -10.54,17.92 -2.01137,9.15945 20.62453,23.97164 18.54,27.08 -1.2453,0.14302 -6.30883,-1.90793 -23.69,-12.14 -5.37954,-2.00342 -7.98975,0.25975 -12.93,5.2 -24.31735,23.74868 -55.30007,29.15044 -69.40773,41.38194 -2.6052,2.66646 -1.92215,5.98783 17.96773,51.21806 15.91505,36.83944 19.76083,72.26169 21.24,100.91 0.55,9.45 1.91,15.87 8.51,23.06 13.34,15.29 21.01,35.31 24.86,55.07 0.50667,2.52667 1.03333,5.05333 1.58,7.58 2.47,12.05 3.44293,23.84456 2.93293,36.12456 -73.15213,42.17562 -227.8063,98.94628 -413.26071,-3.02697 -1.53263,-17.7208 2.08398,-34.78084 7.16778,-51.57759 5.67794,-18.15758 13.9647,-32.95348 22.71,-47.34 5.43197,-8.71634 6.37608,-18.70473 7.36,-28.63 4.55,-46.74 18.23,-89.26 38.28,-131.67 1.9,-4.07 4.03969,-10.29165 2.97289,-11.62967 -0.49064,-0.63775 -0.90622,-1.01366 -1.73289,-1.26033 -4.34,-1.55 -8.36,-3.51 -12.47,-5.56 -0.84667,-0.42 -1.70667,-0.84667 -2.58,-1.28 -1.8,-0.89333 -3.59667,-1.79 -5.39,-2.69 -2.71333,-1.34667 -5.42667,-2.69 -8.14,-4.03 -20.80013,-9.40005 -38.79517,-24.42282 -47.66,-32.51 -2.34,-1.52 -2.34,-1.52 -5.25,-0.61 -13.10089,6.03668 -26.22173,15.24771 -27.07,14.41 0.69749,-4.53427 11.54022,-14.3768 17.72,-21.21 1.46,-2.04 1.93,-3.31 2.28,-5.79 -1.34352,-4.42993 -7.84456,-18.27404 -11,-23 -5.16,-0.51 -9.3,0.46 -14.19,2.06 -0.66667,0.22 -1.34,0.44 -2.02,0.66 -8.98,2.94 -28.39227,9.6484 -29.0915,9.13616 -0.34167,-0.53072 2.27198,-1.71648 4.57877,-2.91809 7.3753,-3.86233 23.57362,-11.48844 35.54273,-16.82807 2.31,-1.04 2.31,-1.04 4.18,-3.11 0.73471,-7.97187 0.77051,-15.99772 1,-24 -7.36641,-0.31346 -14.37049,0.36181 -21.49832,1.482 -1.96772,0.30924 -3.94487,0.65239 -5.94168,1.018 -2.64,0.47333 -5.28333,0.94333 -7.93,1.41 -1.14667,0.20667 -2.31333,0.41667 -3.5,0.63 -2.77,0.41 -6.73211,0.98106 -8.20628,0.71428 0.1137,-1.96898 19.55478,-7.71777 29.06788,-8.82544 15.86,-2.26 19.85819,-1.79656 22.3984,-10.58884 2.85314,-8.78063 5.23089,-15.69461 8.61,-23.84 -1.2,-0.07 -1.2,-0.07 -2.42,-0.15 -21.17,-1.44 -23.9717,-1.8886 -24.51643,-4.86271 -0.23871,-2.67843 0.87643,-3.92729 2.94643,-5.99729 6.6,-5.22 13.33,-10.19 20.22,-15.02 2.56,-1.71 2.56,-1.71 3.77,-2.97 -1.2283,-12.79945 -4.77543,-25.25828 -7.95,-37.69 -2.48,-9.67 -4.6,-19.39 -6.55,-29.18 -0.49333,-2.46667 -0.99333,-4.93667 -1.5,-7.41 -0.86667,-4.3 -1.69333,-8.60667 -2.48,-12.92 -5.77658,-26.81505 -4.97013,-54.35847 -4.96,-81.62 0.11,-10.08 0.89,-19.33 8.04,-26.94 7.13,-6.31 20.38,-0.5 28.4,1.76 z"
       sodipodi:nodetypes="ccccccccccccccccccccccccccccccccccccccccccsccccccccccccccccccccccccccccccccccccsccccccccccccccccccc" />
    <g
       id="cat_eyes">
      <g
         id="left">
        <path
           id="white_of_the_eye"
           class="s8"
           d="m428.88 338.31c12.4 8.51 20.62 20.67 23.7 35.49 2.53 19.34-1.38 37.76-13.39 53.45-11.3 13.35-26.18 22.09-43.68 24.16-15.29 0.41-27.15-4.69-38.15-15.02-10.34-10.46-15.53-22.55-15.69-37.31 0.13-20.62 5.43-37.56 20.32-52.3 18.45-17.39 44.79-21.76 66.89-8.47z" />
        <path
           id="pupil"
           class="s9"
           d="m 410.31,356.5 c 0.83333,0.007 1.68,0.01 2.54,0.01 19.22824,0.53476 30.76134,15.82646 29.15,37.49 -1.92,11.2 -8.29,20.85 -17,28 -7.97,5.48 -16.33,8.01 -26,7 -10.26,-1.9 -18.08,-7.45 -24,-16 -4.62,-8.32 -4.4,-19.31 -2.16,-28.42 4.72,-12.31 12.8,-20.32 24.36,-26.21 4.32,-1.8 8.48,-1.91 13.11,-1.87 z"
           sodipodi:nodetypes="ccccccccc" />
      </g>
      <g
         id="right">
        <path
           id="path8"
           class="s8"
           d="m632.25 345.31c14.04 13.36 21.55 29.46 22.15 48.84 0.12 9.22-0.23 17.44-4.4 25.85q-0.73 1.49-1.47 3.03c-7.11 13.3-17.46 22.27-31.84 26.84-15.16 3.59-30.41 0.36-43.69-7.46-15.01-9.49-24.18-24.26-28.75-41.19-3.37-15.94-1.46-32.04 6.73-46.18 8.54-12.89 19.28-20.38 34.33-23.79 17.99-1.22 33.03 2.02 46.94 14.06z" />
        <path
           id="path9"
           class="s9"
           d="m 604.49,361.24 c 0.82667,0.58 1.66333,1.16667 2.51,1.76 0.75333,0.52667 1.51667,1.06333 2.29,1.61 7.95,6.27 12.97,15.46 14.71,25.39 1.11,10.96 -0.57,20.22 -7.63,28.87 -6.42,6.73 -14.58,10.24 -23.81,10.5 -11.29,-0.12 -19.32,-4.19 -27.37,-11.97 -8.85917,-8.67032 -12.07947,-22.49971 -11.78,-31.49 0.9175,-8.99 2.7,-13.16 7.51,-19.4 11.62,-11.59 29.21,-13.87 43.57,-5.27 z"
           sodipodi:nodetypes="cccccccccc" />
      </g>
    </g>
    <g
       id="cat_ears">
      <path
         id="cat_left_ear"
         class="s10"
         d="m287.94 243.75c22.34 0.29 41.36 16.79 56.58 31.73 4.97 5.11 9.23 10.82 13.48 16.52-1.3 2.9-2.63 4.84-4.98 6.96q-0.9 0.82-1.82 1.66c-0.96 0.87-0.96 0.87-1.95 1.76q-2.05 1.88-4.1 3.78-1.03 0.95-2.1 1.94c-24.32 22.56-40.97 50-53.05 80.9q-0.99 0-2 0c-5.38-20.76-8.79-41.83-11.75-63.06q-0.17-1.23-0.35-2.5c-1.59-11.95-2.11-23.88-2.14-35.92q-0.02-3.48-0.07-6.95c-0.19-25.55-0.19-25.55 7.31-35.57 1.81-1.81 4.5-1.22 6.94-1.25z" />
      <path
         id="cat_right_ear"
         class="s11"
         d="m715.13 248.73c2.07 2.51 2.77 4.32 3.56 7.46 0.34 1.32 0.34 1.32 0.7 2.67 1.36 6.96 1.77 13.92 1.81 21q0.01 1.23 0.02 2.49 0.03 3.98 0.03 7.96 0 1.36 0 2.76c-0.01 23.39-2.63 46.01-7.25 68.93q-0.65 3.31-1.3 6.63-0.66 3.31-1.32 6.62-0.31 1.56-0.63 3.16-0.3 1.44-0.6 2.92-0.26 1.27-0.53 2.59c-0.62 2.08-0.62 2.08-2.62 4.08-3.81-6.97-7.56-13.92-10.81-21.17-7.64-16.96-18.04-31.81-30.19-45.83q-0.7-0.82-1.42-1.66c-6.3-7.34-13.18-13.67-20.61-19.84-2.11-1.78-4.09-3.5-5.97-5.5 1.27-3.67 2.65-6.02 5.41-8.74 1.02-1.01 1.02-1.01 2.06-2.05q1.06-1.02 2.16-2.08 1.02-1.02 2.08-2.07c10.39-10.24 21.19-19.07 34.1-25.93q1.07-0.57 2.18-1.16c8.06-4.18 21-9.84 29.14-3.24z" />
    </g>
    <path
       id="cat_mouth"
       class="s13"
       d="m 498.17564,451.29836 c 4.29985,-0.40493 3.37202,11.47308 13.88855,17.93809 4.72,1.99 9.32581,2.09355 14.37581,1.95355 4.73488,-0.28845 6.10572,-0.36219 9.38322,-1.16227 -0.24151,1.84263 0.0436,2.47251 -0.77993,3.10066 -2.06721,1.57673 -12.54901,3.15668 -17.89619,2.93082 -8.85913,-0.37421 -14.33761,-6.22411 -19.00249,-9.28332 C 490.93656,473.42678 478.70425,480.43454 460,474 c -0.70231,-1.60538 -1.34501,-3.00313 -1.44194,-3.97227 0.92667,0.12 2.30861,0.68194 3.26194,0.80194 37.20261,3.74572 31.55163,-19.07892 36.35564,-19.53131 z"
       sodipodi:nodetypes="scccssccccs" />
    <path
       id="nose"
       class="s14"
       d="m 517.4425,422.185 c 10.43611,4.63925 -9.47521,15.21008 -19.25,17.435 C 489.30845,437.81627 472.29258,428.13504 476,424 c 6.4075,-6.175 28.535,-8.5725 41.4425,-1.815 z"
       sodipodi:nodetypes="cccc" />
    <path
       id="arch_logo"
       class="s12"
       d="m 503,622 c 3.12156,5.13373 3.98755,6.58786 6.16,11.16 0.4,0.95333 0.80667,1.92 1.22,2.9 9.46,22.13 20.13,43.59 32.07,64.48 1.66162,2.76613 2.78068,4.3862 4.78744,8.37161 C 543.80231,707.84495 541.31032,707.32599 538,707 c 1.09,0.71 1.09,0.71 2.2,1.43 6.55,4.49 11.01,8.59 14.8,15.57 1.52604,2.56821 2.79023,5.27198 4,8 0.26004,0.58796 0.50143,1.09428 0.7086,1.51849 0.61152,1.25214 0.92497,1.78891 0.54026,1.59813 C 545.1139,727.61129 534.58925,723.29598 516,716 c -0.0267,-1.06 -0.0533,-2.13333 -0.08,-3.22 -0.32682,-9.21031 -6.63027,-25.64858 -13.36,-25.03 -6.58595,-0.0502 -10.69118,12.41699 -10.62,21.06 0.007,1.16 0.0133,2.33333 0.02,3.52 0.0133,0.88 0.0267,1.77 0.04,2.67 -9.91459,4.31114 -30.54751,13.1285 -45.39775,19.5468 C 460.2146,709.50289 473.8903,684.3625 487,659 c 4.03093,1.10697 7.89428,2.12276 12,4 -2.90336,-2.28749 -8.6428,-7.56148 -9.6875,-8.65625 1.43125,-3.89875 2.7475,-7.13375 4.4075,-10.95375 0.26667,-0.61333 0.53667,-1.23667 0.81,-1.87 0.84,-1.94667 1.68333,-3.89 2.53,-5.83 l 1.72,-3.98 c 1.4,-3.24 2.80667,-6.47667 4.22,-9.71 z"
       sodipodi:nodetypes="cccccccccssccccccccccssccc"
       style="fill:#fdbaef;fill-opacity:1" />
  </g>
</svg>
